<?xml version="1.0" encoding="UTF-8"?>
<svg width="85.466mm" height="55.806mm" version="1.1" viewBox="0 0 85.466 55.806" xmlns="http://www.w3.org/2000/svg"><g transform="translate(-20.391 -22.002)"><g transform="matrix(.87236 0 0 .87968 2.6027 3.1127)"><path d="m117.36 53.193a47.986 30.72 0 0 1-47.986 30.72 47.986 30.72 0 0 1-47.986-30.72 47.986 30.72 0 0 1 47.986-30.72 47.986 30.72 0 0 1 47.986 30.72z" style="-inkscape-stroke:none;color:#000000;fill-opacity:.21569;fill:#03a9f4;paint-order:markers fill stroke;stroke-width:2"/><path d="m69.375 21.473c-19.886 0.52226-48.475 10.439-48.984 31.721 3.2318 23.766 30.345 31.536 48.984 31.719 19.887-0.52161 48.477-10.436 48.986-31.719-3.232-23.765-30.347-31.538-48.986-31.721zm0 2c18.58 0.55943 46.5 9.4262 46.986 29.721-3.2228 22.454-29.398 29.546-46.986 29.719-18.579-0.55946-46.498-9.4267-46.984-29.719 3.2223-22.455 29.396-29.548 46.984-29.721z" style="-inkscape-stroke:none;color:#000000;fill:#e1f5ff;paint-order:markers fill stroke"/></g><text transform="rotate(-2.4618)" x="30.491571" y="42.349419" style="fill:#03a9f4;font-family:'PT Serif';font-size:6.35px;line-height:1.25;stroke-width:.26458" xml:space="preserve"><tspan x="30.491571" y="42.349419" style="fill:#03a9f4;font-family:'PT Serif';font-size:6.35px;font-weight:bold;stroke-width:.26458">+ plavání</tspan></text><text transform="rotate(5.4757)" x="45.597557" y="45.033676" style="fill:#03a9f4;font-family:'PT Serif';font-size:6.35px;line-height:1.25;stroke-width:.26458" xml:space="preserve"><tspan x="45.597557" y="45.033676" style="fill:#03a9f4;font-family:'PT Serif';font-size:6.35px;font-weight:bold;stroke-width:.26458">+ cyklistika</tspan></text><text x="52.781239" y="71.944885" style="font-family:'PT Serif';font-size:4.9389px;line-height:1.25;stroke-width:.26458" xml:space="preserve"><tspan x="52.781239" y="71.944885" style="stroke-width:.26458"/></text><text transform="rotate(-5.2333)" x="38.175274" y="72.82106" style="fill:#03a9f4;font-family:'PT Serif';font-size:6.35px;line-height:1.25;stroke-width:.26458" xml:space="preserve"><tspan x="38.175274" y="72.82106" style="fill:#03a9f4;font-family:'PT Serif';font-size:6.35px;font-weight:bold;stroke-width:.26458">+ lyžování</tspan></text><text transform="rotate(-8.1107)" x="64.565163" y="52.449421" style="fill:#03a9f4;font-family:'PT Serif';font-size:6.35px;line-height:1.25;stroke-width:.26458" xml:space="preserve"><tspan x="64.565163" y="52.449421" style="fill:#03a9f4;font-family:'PT Serif';font-size:6.35px;font-weight:bold;stroke-width:.26458">+ tenis</tspan></text><text transform="rotate(-1.8955)" x="63.656796" y="60.126045" style="fill:#03a9f4;font-family:'PT Serif';font-size:6.35px;line-height:1.25;stroke-width:.26458" xml:space="preserve"><tspan x="63.656796" y="60.126045" style="fill:#03a9f4;font-family:'PT Serif';font-size:6.35px;font-weight:bold;stroke-width:.26458">+ cestování</tspan></text><text transform="rotate(13.175)" x="42.428978" y="45.94017" style="fill:#03a9f4;font-family:'PT Serif';font-size:4.2333px;line-height:1.25;stroke-width:.26458" xml:space="preserve"><tspan x="42.428978" y="45.94017" style="fill:#03a9f4;font-family:'PT Serif';font-size:4.2333px;font-weight:bold;stroke-width:.26458">+ workout</tspan></text></g></svg>
