<?xml version="1.0" encoding="UTF-8"?>
<svg width="85.295mm" height="50.799mm" version="1.1" viewBox="0 0 85.295 50.799" xmlns="http://www.w3.org/2000/svg"><g transform="translate(-20.476 -26.992)"><g transform="matrix(-.87061 -.050233 .055614 -.79963 120.56 98.411)"><path d="m117.36 53.193a47.986 30.72 0 0 1-47.986 30.72 47.986 30.72 0 0 1-47.986-30.72 47.986 30.72 0 0 1 47.986-30.72 47.986 30.72 0 0 1 47.986 30.72z" style="-inkscape-stroke:none;color:#000000;fill-opacity:.21569;fill:#8bc34a;paint-order:markers fill stroke;stroke-width:2"/><path d="m69.375 21.473c-19.886 0.52226-48.475 10.439-48.984 31.721 3.2318 23.766 30.345 31.536 48.984 31.719 19.887-0.52161 48.477-10.436 48.986-31.719-3.232-23.765-30.347-31.538-48.986-31.721zm0 2c18.58 0.55943 46.5 9.4262 46.986 29.721-3.2228 22.454-29.398 29.546-46.986 29.719-18.579-0.55946-46.498-9.4267-46.984-29.719 3.2223-22.455 29.396-29.548 46.984-29.721z" style="-inkscape-stroke:none;color:#000000;fill:#cee6b3;paint-order:markers fill stroke"/></g><text transform="rotate(4.6217)" x="35.262314" y="39.31805" style="fill:#8bc34a;font-family:'PT Serif';font-size:6.35px;line-height:1.25;stroke-width:.26458" xml:space="preserve"><tspan x="35.262314" y="39.31805" style="fill:#8bc34a;font-family:'PT Serif';font-size:6.35px;font-weight:bold;stroke-width:.26458">+ kytara</tspan></text><text transform="rotate(-7.8188)" x="36.914219" y="59.85014" style="fill:#8bc34a;font-family:'PT Serif';font-size:5.6444px;line-height:1.25;stroke-width:.26458" xml:space="preserve"><tspan x="36.914219" y="59.85014" style="fill:#8bc34a;font-family:'PT Serif';font-size:5.6444px;font-weight:bold;stroke-width:.26458">+ OpenStreetMap</tspan></text><text x="52.781239" y="71.944885" style="font-family:'PT Serif';font-size:4.9389px;line-height:1.25;stroke-width:.26458" xml:space="preserve"><tspan x="52.781239" y="71.944885" style="stroke-width:.26458"/></text><text transform="rotate(5.2656)" x="56.783031" y="64.413696" style="fill:#8bc34a;font-family:'PT Serif';font-size:6.35px;line-height:1.25;stroke-width:.26458" xml:space="preserve"><tspan x="56.783031" y="64.413696" style="fill:#8bc34a;font-family:'PT Serif';font-size:6.35px;font-weight:bold;stroke-width:.26458">+ káva</tspan></text><text transform="rotate(-15.101)" x="46.888981" y="59.720661" style="fill:#8bc34a;font-family:'PT Serif';font-size:6.35px;line-height:1.25;stroke-width:.26458" xml:space="preserve"><tspan x="46.888981" y="59.720661" style="fill:#8bc34a;font-family:'PT Serif';font-size:6.35px;font-weight:bold;stroke-width:.26458">+ přátelé</tspan></text><text transform="rotate(-16.733)" x="48.434746" y="81.199493" style="fill:#8bc34a;font-family:'PT Serif';font-size:6.35px;line-height:1.25;stroke-width:.26458" xml:space="preserve"><tspan x="48.434746" y="81.199493" style="fill:#8bc34a;font-family:'PT Serif';font-size:6.35px;font-weight:bold;stroke-width:.26458">+ dortíky</tspan></text><text transform="rotate(13.175)" x="37.912434" y="47.540928" style="fill:#8bc34a;font-family:'PT Serif';font-size:4.2333px;line-height:1.25;stroke-width:.26458" xml:space="preserve"><tspan x="37.912434" y="47.540928" style="fill:#8bc34a;font-family:'PT Serif';font-size:4.2333px;font-weight:bold;stroke-width:.26458">+ otevřený software</tspan></text></g></svg>
