<?xml version="1.0" encoding="UTF-8"?>
<svg width="78.026mm" height="50.799mm" version="1.1" viewBox="0 0 78.026 50.799" xmlns="http://www.w3.org/2000/svg"><g transform="translate(-27.745 -26.992)"><g transform="matrix(.79642 -.050233 -.050875 -.79963 14.211 98.411)"><path d="m117.36 53.193a47.986 30.72 0 0 1-47.986 30.72 47.986 30.72 0 0 1-47.986-30.72 47.986 30.72 0 0 1 47.986-30.72 47.986 30.72 0 0 1 47.986 30.72z" style="-inkscape-stroke:none;color:#000000;fill-opacity:.49371;fill:#ff6e40;paint-order:markers fill stroke;stroke-width:2"/><path d="m69.375 21.473c-19.886 0.52226-48.475 10.439-48.984 31.721 3.2318 23.766 30.345 31.536 48.984 31.719 19.887-0.52161 48.477-10.436 48.986-31.719-3.232-23.765-30.347-31.538-48.986-31.721zm0 2c18.58 0.55943 46.5 9.4262 46.986 29.721-3.2228 22.454-29.398 29.546-46.986 29.719-18.579-0.55946-46.498-9.4267-46.984-29.719 3.2223-22.455 29.396-29.548 46.984-29.721z" style="-inkscape-stroke:none;color:#000000;fill:#ffccbc;paint-order:markers fill stroke"/></g><text transform="rotate(-39.08)" x="29.327171" y="101.31735" style="fill:#ff5722;font-family:'PT Serif';font-size:6.35px;line-height:1.25;stroke-width:.26458" xml:space="preserve"><tspan x="29.327171" y="101.31735" style="fill:#ff5722;font-family:'PT Serif';font-size:6.35px;font-weight:bold;stroke-width:.26458">- nuda</tspan></text><text transform="rotate(-7.8188)" x="31.294918" y="47.439632" style="fill:#ff5722;font-family:'PT Serif';font-size:5.6444px;line-height:1.25;stroke-width:.26458" xml:space="preserve"><tspan x="31.294918" y="47.439632" style="fill:#ff5722;font-family:'PT Serif';font-size:5.6444px;font-weight:bold;stroke-width:.26458">- namyšlení lidé</tspan></text><text x="52.781239" y="71.944885" style="font-family:'PT Serif';font-size:4.9389px;line-height:1.25;stroke-width:.26458" xml:space="preserve"><tspan x="52.781239" y="71.944885" style="stroke-width:.26458"/></text><text transform="rotate(3.5661)" x="44.480274" y="64.970741" style="fill:#ff5722;font-family:'PT Serif';font-size:6.35px;line-height:1.25;stroke-width:.26458" xml:space="preserve"><tspan x="44.480274" y="64.970741" style="fill:#ff5722;font-family:'PT Serif';font-size:6.35px;font-weight:bold;stroke-width:.26458">- plánování</tspan></text><text transform="rotate(9.1007)" x="59.559803" y="37.143139" style="fill:#ff5722;font-family:'PT Serif';font-size:6.35px;line-height:1.25;stroke-width:.26458" xml:space="preserve"><tspan x="59.559803" y="37.143139" style="fill:#ff5722;font-family:'PT Serif';font-size:6.35px;font-weight:bold;stroke-width:.26458">- alibismus</tspan></text><text transform="rotate(12.836)" x="49.971169" y="44.109245" style="fill:#ff5722;font-family:'PT Serif';font-size:4.9389px;line-height:1.25;stroke-width:.26458" xml:space="preserve"><tspan x="49.971169" y="44.109245" style="fill:#ff5722;font-family:'PT Serif';font-size:4.9389px;font-weight:bold;stroke-width:.26458">- numerické počítání</tspan></text></g></svg>
